<mxfile host="app.diagrams.net" agent="Mozilla/5.0 (Macintosh; Intel Mac OS X 10_15_7) AppleWebKit/537.36 (KHTML, like Gecko) Chrome/131.0.0.0 Safari/537.36" version="24.8.8">
  <diagram name="PÃ¡gina-1" id="8CtFQv9veDUQul-5Ctxn">
    <mxGraphModel dx="1242" dy="683" grid="1" gridSize="10" guides="1" tooltips="1" connect="1" arrows="1" fold="1" page="1" pageScale="1" pageWidth="2339" pageHeight="3300" math="0" shadow="0">
      <root>
        <mxCell id="0" />
        <mxCell id="1" parent="0" />
        <mxCell id="6GeKCUMphcadtKiaKULe-9" style="edgeStyle=orthogonalEdgeStyle;rounded=0;orthogonalLoop=1;jettySize=auto;html=1;" edge="1" parent="1" source="6GeKCUMphcadtKiaKULe-1">
          <mxGeometry relative="1" as="geometry">
            <mxPoint x="580" y="400" as="targetPoint" />
          </mxGeometry>
        </mxCell>
        <mxCell id="6GeKCUMphcadtKiaKULe-1" value="" style="sketch=0;outlineConnect=0;fontColor=#232F3E;gradientColor=none;fillColor=#ED7100;strokeColor=none;dashed=0;verticalLabelPosition=bottom;verticalAlign=top;align=center;html=1;fontSize=12;fontStyle=0;aspect=fixed;pointerEvents=1;shape=mxgraph.aws4.lambda_function;" vertex="1" parent="1">
          <mxGeometry x="340" y="360" width="80" height="80" as="geometry" />
        </mxCell>
        <mxCell id="6GeKCUMphcadtKiaKULe-3" style="edgeStyle=orthogonalEdgeStyle;rounded=0;orthogonalLoop=1;jettySize=auto;html=1;" edge="1" parent="1" source="6GeKCUMphcadtKiaKULe-2" target="6GeKCUMphcadtKiaKULe-1">
          <mxGeometry relative="1" as="geometry" />
        </mxCell>
        <mxCell id="6GeKCUMphcadtKiaKULe-2" value="" style="outlineConnect=0;dashed=0;verticalLabelPosition=bottom;verticalAlign=top;align=center;html=1;shape=mxgraph.aws3.lambda;fillColor=#F58534;gradientColor=none;" vertex="1" parent="1">
          <mxGeometry x="160" y="160" width="110" height="140" as="geometry" />
        </mxCell>
        <mxCell id="6GeKCUMphcadtKiaKULe-4" value="upsertSystemInformation" style="text;whiteSpace=wrap;html=1;" vertex="1" parent="1">
          <mxGeometry x="140" y="300" width="170" height="40" as="geometry" />
        </mxCell>
        <mxCell id="6GeKCUMphcadtKiaKULe-6" style="edgeStyle=orthogonalEdgeStyle;rounded=0;orthogonalLoop=1;jettySize=auto;html=1;" edge="1" parent="1" source="6GeKCUMphcadtKiaKULe-5" target="6GeKCUMphcadtKiaKULe-1">
          <mxGeometry relative="1" as="geometry" />
        </mxCell>
        <mxCell id="6GeKCUMphcadtKiaKULe-5" value="" style="outlineConnect=0;dashed=0;verticalLabelPosition=bottom;verticalAlign=top;align=center;html=1;shape=mxgraph.aws3.lambda;fillColor=#F58534;gradientColor=none;" vertex="1" parent="1">
          <mxGeometry x="160" y="450" width="110" height="140" as="geometry" />
        </mxCell>
        <mxCell id="6GeKCUMphcadtKiaKULe-7" value="updateBasicInformation" style="text;html=1;align=center;verticalAlign=middle;resizable=0;points=[];autosize=1;strokeColor=none;fillColor=none;" vertex="1" parent="1">
          <mxGeometry x="120" y="598" width="150" height="30" as="geometry" />
        </mxCell>
        <mxCell id="6GeKCUMphcadtKiaKULe-8" value="RequestSignAddendum" style="text;whiteSpace=wrap;html=1;" vertex="1" parent="1">
          <mxGeometry x="420" y="420" width="120" height="40" as="geometry" />
        </mxCell>
        <mxCell id="6GeKCUMphcadtKiaKULe-16" style="edgeStyle=orthogonalEdgeStyle;rounded=0;orthogonalLoop=1;jettySize=auto;html=1;" edge="1" parent="1" source="6GeKCUMphcadtKiaKULe-11">
          <mxGeometry relative="1" as="geometry">
            <mxPoint x="620" y="470" as="targetPoint" />
          </mxGeometry>
        </mxCell>
        <mxCell id="6GeKCUMphcadtKiaKULe-11" value="" style="sketch=0;outlineConnect=0;fontColor=#232F3E;gradientColor=none;fillColor=#ED7100;strokeColor=none;dashed=0;verticalLabelPosition=bottom;verticalAlign=top;align=center;html=1;fontSize=12;fontStyle=0;aspect=fixed;pointerEvents=1;shape=mxgraph.aws4.lambda_function;" vertex="1" parent="1">
          <mxGeometry x="580" y="360" width="80" height="80" as="geometry" />
        </mxCell>
        <mxCell id="6GeKCUMphcadtKiaKULe-13" value="invokeUpdateLoanStatus" style="text;whiteSpace=wrap;html=1;" vertex="1" parent="1">
          <mxGeometry x="550" y="320" width="170" height="40" as="geometry" />
        </mxCell>
        <mxCell id="6GeKCUMphcadtKiaKULe-14" value="" style="outlineConnect=0;dashed=0;verticalLabelPosition=bottom;verticalAlign=top;align=center;html=1;shape=mxgraph.aws3.dynamo_db;fillColor=#2E73B8;gradientColor=none;" vertex="1" parent="1">
          <mxGeometry x="584" y="487" width="72" height="81" as="geometry" />
        </mxCell>
        <mxCell id="6GeKCUMphcadtKiaKULe-17" value="{&quot;loanStatus&quot;: &quot;LOAN4B&quot;}" style="text;whiteSpace=wrap;html=1;" vertex="1" parent="1">
          <mxGeometry x="550" y="580" width="170" height="40" as="geometry" />
        </mxCell>
        <mxCell id="6GeKCUMphcadtKiaKULe-18" value="" style="points=[];aspect=fixed;html=1;align=center;shadow=0;dashed=0;fillColor=#FF6A00;strokeColor=none;shape=mxgraph.alibaba_cloud.user_feedback_02;" vertex="1" parent="1">
          <mxGeometry x="930" y="160" width="94.85" height="110" as="geometry" />
        </mxCell>
        <mxCell id="6GeKCUMphcadtKiaKULe-22" style="edgeStyle=orthogonalEdgeStyle;rounded=0;orthogonalLoop=1;jettySize=auto;html=1;" edge="1" parent="1" source="6GeKCUMphcadtKiaKULe-20">
          <mxGeometry relative="1" as="geometry">
            <mxPoint x="780" y="210" as="targetPoint" />
          </mxGeometry>
        </mxCell>
        <mxCell id="6GeKCUMphcadtKiaKULe-20" value="docusignWebHook" style="sketch=0;outlineConnect=0;fontColor=#232F3E;gradientColor=none;fillColor=#ED7100;strokeColor=none;dashed=0;verticalLabelPosition=bottom;verticalAlign=top;align=center;html=1;fontSize=12;fontStyle=0;aspect=fixed;pointerEvents=1;shape=mxgraph.aws4.lambda_function;" vertex="1" parent="1">
          <mxGeometry x="937.4300000000001" y="290" width="80" height="80" as="geometry" />
        </mxCell>
        <mxCell id="6GeKCUMphcadtKiaKULe-29" style="edgeStyle=orthogonalEdgeStyle;rounded=0;orthogonalLoop=1;jettySize=auto;html=1;" edge="1" parent="1" source="6GeKCUMphcadtKiaKULe-25">
          <mxGeometry relative="1" as="geometry">
            <mxPoint x="660" y="150" as="targetPoint" />
          </mxGeometry>
        </mxCell>
        <mxCell id="6GeKCUMphcadtKiaKULe-25" value="" style="sketch=0;outlineConnect=0;fontColor=#232F3E;gradientColor=none;fillColor=#7AA116;strokeColor=none;dashed=0;verticalLabelPosition=bottom;verticalAlign=top;align=center;html=1;fontSize=12;fontStyle=0;aspect=fixed;pointerEvents=1;shape=mxgraph.aws4.lambda_function;" vertex="1" parent="1">
          <mxGeometry x="730" y="100" width="100" height="100" as="geometry" />
        </mxCell>
        <mxCell id="6GeKCUMphcadtKiaKULe-27" value="envelopeCompleted" style="text;whiteSpace=wrap;html=1;" vertex="1" parent="1">
          <mxGeometry x="730" y="70" width="120" height="30" as="geometry" />
        </mxCell>
        <mxCell id="6GeKCUMphcadtKiaKULe-28" value="" style="outlineConnect=0;dashed=0;verticalLabelPosition=bottom;verticalAlign=top;align=center;html=1;shape=mxgraph.aws3.dynamo_db;fillColor=#2E73B8;gradientColor=none;" vertex="1" parent="1">
          <mxGeometry x="584" y="109.5" width="72" height="81" as="geometry" />
        </mxCell>
        <mxCell id="6GeKCUMphcadtKiaKULe-30" value="{&quot;loanStatus&quot;: &quot;LOAN6&quot;}" style="text;whiteSpace=wrap;html=1;" vertex="1" parent="1">
          <mxGeometry x="550" y="80" width="170" height="40" as="geometry" />
        </mxCell>
      </root>
    </mxGraphModel>
  </diagram>
</mxfile>
